<mxfile host="app.diagrams.net" modified="2023-09-16T08:11:27.661Z" agent="Mozilla/5.0 (Macintosh; Intel Mac OS X 10_15_7) AppleWebKit/537.36 (KHTML, like Gecko) Chrome/116.0.0.0 Safari/537.36" etag="51n8K6m1vV-_GQkcnIZZ" version="21.7.5" type="github">
  <diagram name="第 1 页" id="zgr502I-thZL9eDrCSQo">
    <mxGraphModel dx="2074" dy="1150" grid="1" gridSize="10" guides="1" tooltips="1" connect="1" arrows="1" fold="1" page="0" pageScale="1" pageWidth="827" pageHeight="1169" math="0" shadow="0">
      <root>
        <mxCell id="0" />
        <mxCell id="1" parent="0" />
        <mxCell id="zJy86OhnqWDiOwuOmrXa-5" style="edgeStyle=orthogonalEdgeStyle;rounded=0;orthogonalLoop=1;jettySize=auto;html=1;exitX=1;exitY=0.5;exitDx=0;exitDy=0;entryX=0;entryY=0.5;entryDx=0;entryDy=0;" parent="1" source="zJy86OhnqWDiOwuOmrXa-1" target="zJy86OhnqWDiOwuOmrXa-3" edge="1">
          <mxGeometry relative="1" as="geometry" />
        </mxCell>
        <mxCell id="zJy86OhnqWDiOwuOmrXa-1" value="根据活动ID查券列表" style="rounded=0;whiteSpace=wrap;html=1;fillColor=#dae8fc;strokeColor=#6c8ebf;" parent="1" vertex="1">
          <mxGeometry x="110" y="290" width="120" height="60" as="geometry" />
        </mxCell>
        <mxCell id="zJy86OhnqWDiOwuOmrXa-2" value="直播间发券" style="text;html=1;align=center;verticalAlign=middle;resizable=0;points=[];autosize=1;strokeColor=none;fillColor=none;" parent="1" vertex="1">
          <mxGeometry x="60" y="70" width="80" height="30" as="geometry" />
        </mxCell>
        <mxCell id="zJy86OhnqWDiOwuOmrXa-6" style="edgeStyle=orthogonalEdgeStyle;rounded=0;orthogonalLoop=1;jettySize=auto;html=1;exitX=1;exitY=0.5;exitDx=0;exitDy=0;entryX=0;entryY=0.5;entryDx=0;entryDy=0;" parent="1" source="zJy86OhnqWDiOwuOmrXa-3" target="zJy86OhnqWDiOwuOmrXa-4" edge="1">
          <mxGeometry relative="1" as="geometry" />
        </mxCell>
        <mxCell id="zJy86OhnqWDiOwuOmrXa-3" value="是否是同一直播ID？" style="rhombus;whiteSpace=wrap;html=1;fillColor=#f8cecc;strokeColor=#b85450;" parent="1" vertex="1">
          <mxGeometry x="320" y="280" width="170" height="80" as="geometry" />
        </mxCell>
        <mxCell id="zJy86OhnqWDiOwuOmrXa-8" style="edgeStyle=orthogonalEdgeStyle;rounded=0;orthogonalLoop=1;jettySize=auto;html=1;exitX=1;exitY=0.5;exitDx=0;exitDy=0;entryX=0;entryY=0.5;entryDx=0;entryDy=0;" parent="1" source="zJy86OhnqWDiOwuOmrXa-4" target="zJy86OhnqWDiOwuOmrXa-7" edge="1">
          <mxGeometry relative="1" as="geometry" />
        </mxCell>
        <mxCell id="zJy86OhnqWDiOwuOmrXa-4" value="是否在线状态？" style="rhombus;whiteSpace=wrap;html=1;fillColor=#f8cecc;strokeColor=#b85450;" parent="1" vertex="1">
          <mxGeometry x="540" y="280" width="170" height="80" as="geometry" />
        </mxCell>
        <mxCell id="zJy86OhnqWDiOwuOmrXa-13" style="edgeStyle=orthogonalEdgeStyle;rounded=0;orthogonalLoop=1;jettySize=auto;html=1;exitX=0.5;exitY=1;exitDx=0;exitDy=0;entryX=0.5;entryY=0;entryDx=0;entryDy=0;" parent="1" source="zJy86OhnqWDiOwuOmrXa-7" target="zJy86OhnqWDiOwuOmrXa-11" edge="1">
          <mxGeometry relative="1" as="geometry" />
        </mxCell>
        <mxCell id="zJy86OhnqWDiOwuOmrXa-7" value="风控通过？" style="rhombus;whiteSpace=wrap;html=1;fillColor=#f8cecc;strokeColor=#b85450;" parent="1" vertex="1">
          <mxGeometry x="770" y="280" width="170" height="80" as="geometry" />
        </mxCell>
        <mxCell id="zJy86OhnqWDiOwuOmrXa-10" style="edgeStyle=orthogonalEdgeStyle;rounded=0;orthogonalLoop=1;jettySize=auto;html=1;exitX=0.5;exitY=1;exitDx=0;exitDy=0;exitPerimeter=0;entryX=0.5;entryY=0;entryDx=0;entryDy=0;" parent="1" source="zJy86OhnqWDiOwuOmrXa-9" target="zJy86OhnqWDiOwuOmrXa-1" edge="1">
          <mxGeometry relative="1" as="geometry" />
        </mxCell>
        <mxCell id="zJy86OhnqWDiOwuOmrXa-9" value="DB" style="shape=cylinder3;whiteSpace=wrap;html=1;boundedLbl=1;backgroundOutline=1;size=15;fillColor=#fff2cc;strokeColor=#d6b656;" parent="1" vertex="1">
          <mxGeometry x="140" y="150" width="60" height="80" as="geometry" />
        </mxCell>
        <mxCell id="zJy86OhnqWDiOwuOmrXa-14" style="edgeStyle=orthogonalEdgeStyle;rounded=0;orthogonalLoop=1;jettySize=auto;html=1;exitX=0;exitY=0.5;exitDx=0;exitDy=0;entryX=1;entryY=0.5;entryDx=0;entryDy=0;" parent="1" source="zJy86OhnqWDiOwuOmrXa-11" target="zJy86OhnqWDiOwuOmrXa-12" edge="1">
          <mxGeometry relative="1" as="geometry" />
        </mxCell>
        <mxCell id="zJy86OhnqWDiOwuOmrXa-11" value="发券" style="rounded=0;whiteSpace=wrap;html=1;fillColor=#dae8fc;strokeColor=#6c8ebf;" parent="1" vertex="1">
          <mxGeometry x="795" y="430" width="120" height="60" as="geometry" />
        </mxCell>
        <mxCell id="zJy86OhnqWDiOwuOmrXa-18" style="edgeStyle=orthogonalEdgeStyle;rounded=0;orthogonalLoop=1;jettySize=auto;html=1;exitX=0;exitY=0.5;exitDx=0;exitDy=0;entryX=1;entryY=0.5;entryDx=0;entryDy=0;" parent="1" source="zJy86OhnqWDiOwuOmrXa-12" target="zJy86OhnqWDiOwuOmrXa-15" edge="1">
          <mxGeometry relative="1" as="geometry" />
        </mxCell>
        <mxCell id="zJy86OhnqWDiOwuOmrXa-12" value="获取券的配置信息" style="rounded=0;whiteSpace=wrap;html=1;fillColor=#dae8fc;strokeColor=#6c8ebf;" parent="1" vertex="1">
          <mxGeometry x="580" y="430" width="120" height="60" as="geometry" />
        </mxCell>
        <mxCell id="zJy86OhnqWDiOwuOmrXa-17" style="edgeStyle=orthogonalEdgeStyle;rounded=0;orthogonalLoop=1;jettySize=auto;html=1;exitX=0.5;exitY=1;exitDx=0;exitDy=0;entryX=0.5;entryY=0;entryDx=0;entryDy=0;entryPerimeter=0;" parent="1" source="zJy86OhnqWDiOwuOmrXa-15" target="zJy86OhnqWDiOwuOmrXa-16" edge="1">
          <mxGeometry relative="1" as="geometry" />
        </mxCell>
        <mxCell id="zJy86OhnqWDiOwuOmrXa-15" value="领取券的信息写到Redis里" style="rounded=0;whiteSpace=wrap;html=1;fillColor=#dae8fc;strokeColor=#6c8ebf;" parent="1" vertex="1">
          <mxGeometry x="345" y="430" width="120" height="60" as="geometry" />
        </mxCell>
        <mxCell id="zJy86OhnqWDiOwuOmrXa-16" value="Redis" style="shape=cylinder3;whiteSpace=wrap;html=1;boundedLbl=1;backgroundOutline=1;size=15;fillColor=#fff2cc;strokeColor=#d6b656;" parent="1" vertex="1">
          <mxGeometry x="375" y="545" width="60" height="80" as="geometry" />
        </mxCell>
        <mxCell id="P3cI4czv0VAM7IYChO-c-7" style="edgeStyle=orthogonalEdgeStyle;rounded=0;orthogonalLoop=1;jettySize=auto;html=1;exitX=1;exitY=0.5;exitDx=0;exitDy=0;entryX=0;entryY=0.5;entryDx=0;entryDy=0;" edge="1" parent="1" source="P3cI4czv0VAM7IYChO-c-1" target="P3cI4czv0VAM7IYChO-c-6">
          <mxGeometry relative="1" as="geometry" />
        </mxCell>
        <mxCell id="P3cI4czv0VAM7IYChO-c-1" value="根据BizType获取AppKey" style="rounded=0;whiteSpace=wrap;html=1;fillColor=#dae8fc;strokeColor=#6c8ebf;" vertex="1" parent="1">
          <mxGeometry x="290" y="850" width="120" height="60" as="geometry" />
        </mxCell>
        <mxCell id="P3cI4czv0VAM7IYChO-c-5" style="edgeStyle=orthogonalEdgeStyle;rounded=0;orthogonalLoop=1;jettySize=auto;html=1;exitX=0.5;exitY=1;exitDx=0;exitDy=0;exitPerimeter=0;entryX=0.5;entryY=0;entryDx=0;entryDy=0;" edge="1" parent="1" source="P3cI4czv0VAM7IYChO-c-2" target="P3cI4czv0VAM7IYChO-c-1">
          <mxGeometry relative="1" as="geometry" />
        </mxCell>
        <mxCell id="P3cI4czv0VAM7IYChO-c-2" value="Lion" style="shape=cylinder3;whiteSpace=wrap;html=1;boundedLbl=1;backgroundOutline=1;size=15;fillColor=#fff2cc;strokeColor=#d6b656;" vertex="1" parent="1">
          <mxGeometry x="320" y="710" width="60" height="80" as="geometry" />
        </mxCell>
        <mxCell id="P3cI4czv0VAM7IYChO-c-4" value="biz_coupon_spi_app_key_map_to_c:{}" style="text;html=1;align=center;verticalAlign=middle;resizable=0;points=[];autosize=1;strokeColor=none;fillColor=none;" vertex="1" parent="1">
          <mxGeometry x="380" y="735" width="230" height="30" as="geometry" />
        </mxCell>
        <mxCell id="P3cI4czv0VAM7IYChO-c-9" style="edgeStyle=orthogonalEdgeStyle;rounded=0;orthogonalLoop=1;jettySize=auto;html=1;exitX=1;exitY=0.5;exitDx=0;exitDy=0;entryX=0;entryY=0.5;entryDx=0;entryDy=0;" edge="1" parent="1" source="P3cI4czv0VAM7IYChO-c-6" target="P3cI4czv0VAM7IYChO-c-8">
          <mxGeometry relative="1" as="geometry" />
        </mxCell>
        <mxCell id="P3cI4czv0VAM7IYChO-c-6" value="构建ThriftConfig" style="rounded=0;whiteSpace=wrap;html=1;fillColor=#dae8fc;strokeColor=#6c8ebf;" vertex="1" parent="1">
          <mxGeometry x="520" y="850" width="120" height="60" as="geometry" />
        </mxCell>
        <mxCell id="P3cI4czv0VAM7IYChO-c-8" value="get result" style="rounded=0;whiteSpace=wrap;html=1;fillColor=#dae8fc;strokeColor=#6c8ebf;" vertex="1" parent="1">
          <mxGeometry x="720" y="850" width="120" height="60" as="geometry" />
        </mxCell>
        <mxCell id="P3cI4czv0VAM7IYChO-c-10" style="edgeStyle=orthogonalEdgeStyle;rounded=0;orthogonalLoop=1;jettySize=auto;html=1;exitX=1;exitY=0.5;exitDx=0;exitDy=0;entryX=0;entryY=0.5;entryDx=0;entryDy=0;" edge="1" parent="1" source="P3cI4czv0VAM7IYChO-c-11" target="P3cI4czv0VAM7IYChO-c-16">
          <mxGeometry relative="1" as="geometry" />
        </mxCell>
        <mxCell id="P3cI4czv0VAM7IYChO-c-11" value="根据BizType获取AppKey" style="rounded=0;whiteSpace=wrap;html=1;fillColor=#dae8fc;strokeColor=#6c8ebf;" vertex="1" parent="1">
          <mxGeometry x="1090" y="840" width="120" height="60" as="geometry" />
        </mxCell>
        <mxCell id="P3cI4czv0VAM7IYChO-c-12" style="edgeStyle=orthogonalEdgeStyle;rounded=0;orthogonalLoop=1;jettySize=auto;html=1;exitX=0.5;exitY=1;exitDx=0;exitDy=0;exitPerimeter=0;entryX=0.5;entryY=0;entryDx=0;entryDy=0;" edge="1" parent="1" source="P3cI4czv0VAM7IYChO-c-13" target="P3cI4czv0VAM7IYChO-c-11">
          <mxGeometry relative="1" as="geometry" />
        </mxCell>
        <mxCell id="P3cI4czv0VAM7IYChO-c-13" value="Lion" style="shape=cylinder3;whiteSpace=wrap;html=1;boundedLbl=1;backgroundOutline=1;size=15;fillColor=#fff2cc;strokeColor=#d6b656;" vertex="1" parent="1">
          <mxGeometry x="1120" y="700" width="60" height="80" as="geometry" />
        </mxCell>
        <mxCell id="P3cI4czv0VAM7IYChO-c-14" value="biz_coupon_spi_app_key_map" style="text;html=1;align=center;verticalAlign=middle;resizable=0;points=[];autosize=1;strokeColor=none;fillColor=none;" vertex="1" parent="1">
          <mxGeometry x="1190" y="725" width="190" height="30" as="geometry" />
        </mxCell>
        <mxCell id="P3cI4czv0VAM7IYChO-c-15" style="edgeStyle=orthogonalEdgeStyle;rounded=0;orthogonalLoop=1;jettySize=auto;html=1;exitX=1;exitY=0.5;exitDx=0;exitDy=0;entryX=0;entryY=0.5;entryDx=0;entryDy=0;" edge="1" parent="1" source="P3cI4czv0VAM7IYChO-c-16" target="P3cI4czv0VAM7IYChO-c-17">
          <mxGeometry relative="1" as="geometry" />
        </mxCell>
        <mxCell id="P3cI4czv0VAM7IYChO-c-16" value="构建ThriftConfig" style="rounded=0;whiteSpace=wrap;html=1;fillColor=#dae8fc;strokeColor=#6c8ebf;" vertex="1" parent="1">
          <mxGeometry x="1320" y="840" width="120" height="60" as="geometry" />
        </mxCell>
        <mxCell id="P3cI4czv0VAM7IYChO-c-17" value="get result" style="rounded=0;whiteSpace=wrap;html=1;fillColor=#dae8fc;strokeColor=#6c8ebf;" vertex="1" parent="1">
          <mxGeometry x="1520" y="840" width="120" height="60" as="geometry" />
        </mxCell>
        <mxCell id="P3cI4czv0VAM7IYChO-c-18" value="中控台-平台券" style="text;html=1;align=center;verticalAlign=middle;resizable=0;points=[];autosize=1;strokeColor=none;fillColor=none;" vertex="1" parent="1">
          <mxGeometry x="50" y="1265" width="100" height="30" as="geometry" />
        </mxCell>
        <mxCell id="P3cI4czv0VAM7IYChO-c-19" value="获取平台券列表" style="rounded=0;whiteSpace=wrap;html=1;fillColor=#dae8fc;strokeColor=#6c8ebf;" vertex="1" parent="1">
          <mxGeometry x="294" y="1250" width="120" height="60" as="geometry" />
        </mxCell>
        <mxCell id="P3cI4czv0VAM7IYChO-c-21" style="edgeStyle=orthogonalEdgeStyle;rounded=0;orthogonalLoop=1;jettySize=auto;html=1;exitX=0.5;exitY=1;exitDx=0;exitDy=0;exitPerimeter=0;entryX=0.5;entryY=0;entryDx=0;entryDy=0;" edge="1" parent="1" source="P3cI4czv0VAM7IYChO-c-20" target="P3cI4czv0VAM7IYChO-c-19">
          <mxGeometry relative="1" as="geometry" />
        </mxCell>
        <mxCell id="P3cI4czv0VAM7IYChO-c-20" value="LiveCategoryMeta" style="shape=cylinder3;whiteSpace=wrap;html=1;boundedLbl=1;backgroundOutline=1;size=15;fillColor=#fff2cc;strokeColor=#d6b656;" vertex="1" parent="1">
          <mxGeometry x="324" y="1089" width="60" height="80" as="geometry" />
        </mxCell>
        <mxCell id="P3cI4czv0VAM7IYChO-c-26" style="edgeStyle=orthogonalEdgeStyle;rounded=0;orthogonalLoop=1;jettySize=auto;html=1;exitX=0.5;exitY=1;exitDx=0;exitDy=0;entryX=0.5;entryY=0;entryDx=0;entryDy=0;" edge="1" parent="1" source="P3cI4czv0VAM7IYChO-c-22" target="P3cI4czv0VAM7IYChO-c-25">
          <mxGeometry relative="1" as="geometry" />
        </mxCell>
        <mxCell id="P3cI4czv0VAM7IYChO-c-22" value="预添加" style="rounded=0;whiteSpace=wrap;html=1;fillColor=#dae8fc;strokeColor=#6c8ebf;" vertex="1" parent="1">
          <mxGeometry x="290" y="1430" width="120" height="60" as="geometry" />
        </mxCell>
        <mxCell id="P3cI4czv0VAM7IYChO-c-27" style="edgeStyle=orthogonalEdgeStyle;rounded=0;orthogonalLoop=1;jettySize=auto;html=1;exitX=0.5;exitY=1;exitDx=0;exitDy=0;entryX=0.5;entryY=0;entryDx=0;entryDy=0;entryPerimeter=0;" edge="1" parent="1">
          <mxGeometry relative="1" as="geometry">
            <mxPoint x="354" y="1610" as="sourcePoint" />
            <mxPoint x="349" y="1640" as="targetPoint" />
          </mxGeometry>
        </mxCell>
        <mxCell id="P3cI4czv0VAM7IYChO-c-25" value="是否已添加？" style="rhombus;whiteSpace=wrap;html=1;fillColor=#f8cecc;strokeColor=#b85450;" vertex="1" parent="1">
          <mxGeometry x="267" y="1530" width="166" height="80" as="geometry" />
        </mxCell>
        <mxCell id="P3cI4czv0VAM7IYChO-c-29" style="edgeStyle=orthogonalEdgeStyle;rounded=0;orthogonalLoop=1;jettySize=auto;html=1;exitX=0;exitY=0.5;exitDx=0;exitDy=0;exitPerimeter=0;entryX=1;entryY=0.5;entryDx=0;entryDy=0;" edge="1" parent="1" source="P3cI4czv0VAM7IYChO-c-28" target="P3cI4czv0VAM7IYChO-c-25">
          <mxGeometry relative="1" as="geometry" />
        </mxCell>
        <mxCell id="P3cI4czv0VAM7IYChO-c-28" value="live_coupon_activity" style="shape=cylinder3;whiteSpace=wrap;html=1;boundedLbl=1;backgroundOutline=1;size=15;fillColor=#fff2cc;strokeColor=#d6b656;" vertex="1" parent="1">
          <mxGeometry x="510" y="1530" width="60" height="80" as="geometry" />
        </mxCell>
        <mxCell id="P3cI4czv0VAM7IYChO-c-30" value="调用对应RPC" style="rounded=0;whiteSpace=wrap;html=1;fillColor=#dae8fc;strokeColor=#6c8ebf;" vertex="1" parent="1">
          <mxGeometry x="284" y="1640" width="120" height="60" as="geometry" />
        </mxCell>
        <mxCell id="P3cI4czv0VAM7IYChO-c-35" style="edgeStyle=orthogonalEdgeStyle;rounded=0;orthogonalLoop=1;jettySize=auto;html=1;exitX=0.5;exitY=0;exitDx=0;exitDy=0;entryX=0.5;entryY=1;entryDx=0;entryDy=0;" edge="1" parent="1" source="P3cI4czv0VAM7IYChO-c-31" target="P3cI4czv0VAM7IYChO-c-32">
          <mxGeometry relative="1" as="geometry" />
        </mxCell>
        <mxCell id="P3cI4czv0VAM7IYChO-c-31" value="发券" style="rounded=0;whiteSpace=wrap;html=1;fillColor=#dae8fc;strokeColor=#6c8ebf;" vertex="1" parent="1">
          <mxGeometry x="563" y="1250" width="120" height="60" as="geometry" />
        </mxCell>
        <mxCell id="P3cI4czv0VAM7IYChO-c-36" style="edgeStyle=orthogonalEdgeStyle;rounded=0;orthogonalLoop=1;jettySize=auto;html=1;exitX=0.5;exitY=0;exitDx=0;exitDy=0;entryX=0.5;entryY=0;entryDx=0;entryDy=0;entryPerimeter=0;" edge="1" parent="1" source="P3cI4czv0VAM7IYChO-c-32" target="P3cI4czv0VAM7IYChO-c-33">
          <mxGeometry relative="1" as="geometry" />
        </mxCell>
        <mxCell id="P3cI4czv0VAM7IYChO-c-32" value="是否已添加？" style="rhombus;whiteSpace=wrap;html=1;fillColor=#f8cecc;strokeColor=#b85450;" vertex="1" parent="1">
          <mxGeometry x="540" y="1110" width="166" height="80" as="geometry" />
        </mxCell>
        <mxCell id="P3cI4czv0VAM7IYChO-c-34" style="edgeStyle=orthogonalEdgeStyle;rounded=0;orthogonalLoop=1;jettySize=auto;html=1;exitX=0;exitY=0.5;exitDx=0;exitDy=0;exitPerimeter=0;entryX=1;entryY=0.5;entryDx=0;entryDy=0;" edge="1" parent="1" source="P3cI4czv0VAM7IYChO-c-33" target="P3cI4czv0VAM7IYChO-c-32">
          <mxGeometry relative="1" as="geometry">
            <mxPoint x="723" y="1150" as="targetPoint" />
          </mxGeometry>
        </mxCell>
        <mxCell id="P3cI4czv0VAM7IYChO-c-33" value="live_coupon_activity" style="shape=cylinder3;whiteSpace=wrap;html=1;boundedLbl=1;backgroundOutline=1;size=15;fillColor=#fff2cc;strokeColor=#d6b656;" vertex="1" parent="1">
          <mxGeometry x="783" y="1110" width="60" height="80" as="geometry" />
        </mxCell>
        <mxCell id="P3cI4czv0VAM7IYChO-c-37" value="先调用对应RPC查询" style="text;html=1;align=center;verticalAlign=middle;resizable=0;points=[];autosize=1;strokeColor=none;fillColor=none;" vertex="1" parent="1">
          <mxGeometry x="653" y="1059" width="130" height="30" as="geometry" />
        </mxCell>
        <mxCell id="P3cI4czv0VAM7IYChO-c-39" style="edgeStyle=orthogonalEdgeStyle;rounded=0;orthogonalLoop=1;jettySize=auto;html=1;exitX=0.5;exitY=1;exitDx=0;exitDy=0;entryX=1;entryY=0.5;entryDx=0;entryDy=0;entryPerimeter=0;" edge="1" parent="1" source="P3cI4czv0VAM7IYChO-c-38" target="P3cI4czv0VAM7IYChO-c-28">
          <mxGeometry relative="1" as="geometry" />
        </mxCell>
        <mxCell id="P3cI4czv0VAM7IYChO-c-38" value="上下线" style="rounded=0;whiteSpace=wrap;html=1;fillColor=#dae8fc;strokeColor=#6c8ebf;" vertex="1" parent="1">
          <mxGeometry x="670" y="1430" width="120" height="60" as="geometry" />
        </mxCell>
        <mxCell id="P3cI4czv0VAM7IYChO-c-40" value="update status" style="text;html=1;align=center;verticalAlign=middle;resizable=0;points=[];autosize=1;strokeColor=none;fillColor=none;" vertex="1" parent="1">
          <mxGeometry x="740" y="1530" width="100" height="30" as="geometry" />
        </mxCell>
        <mxCell id="P3cI4czv0VAM7IYChO-c-43" style="edgeStyle=orthogonalEdgeStyle;rounded=0;orthogonalLoop=1;jettySize=auto;html=1;exitX=0.07;exitY=0.4;exitDx=0;exitDy=0;exitPerimeter=0;entryX=0.5;entryY=1;entryDx=0;entryDy=0;dashed=1;" edge="1" parent="1" source="P3cI4czv0VAM7IYChO-c-42" target="P3cI4czv0VAM7IYChO-c-19">
          <mxGeometry relative="1" as="geometry" />
        </mxCell>
        <mxCell id="P3cI4czv0VAM7IYChO-c-44" style="edgeStyle=orthogonalEdgeStyle;rounded=0;orthogonalLoop=1;jettySize=auto;html=1;exitX=0.55;exitY=0.95;exitDx=0;exitDy=0;exitPerimeter=0;entryX=1;entryY=0.5;entryDx=0;entryDy=0;dashed=1;" edge="1" parent="1" source="P3cI4czv0VAM7IYChO-c-42" target="P3cI4czv0VAM7IYChO-c-22">
          <mxGeometry relative="1" as="geometry" />
        </mxCell>
        <mxCell id="P3cI4czv0VAM7IYChO-c-45" style="edgeStyle=orthogonalEdgeStyle;rounded=0;orthogonalLoop=1;jettySize=auto;html=1;exitX=0.88;exitY=0.25;exitDx=0;exitDy=0;exitPerimeter=0;dashed=1;entryX=0.5;entryY=1;entryDx=0;entryDy=0;" edge="1" parent="1" source="P3cI4czv0VAM7IYChO-c-42" target="P3cI4czv0VAM7IYChO-c-31">
          <mxGeometry relative="1" as="geometry">
            <mxPoint x="610" y="1320" as="targetPoint" />
            <Array as="points">
              <mxPoint x="620" y="1360" />
              <mxPoint x="620" y="1310" />
            </Array>
          </mxGeometry>
        </mxCell>
        <mxCell id="P3cI4czv0VAM7IYChO-c-46" style="edgeStyle=orthogonalEdgeStyle;rounded=0;orthogonalLoop=1;jettySize=auto;html=1;exitX=0.875;exitY=0.5;exitDx=0;exitDy=0;exitPerimeter=0;entryX=0.5;entryY=0;entryDx=0;entryDy=0;dashed=1;" edge="1" parent="1" source="P3cI4czv0VAM7IYChO-c-42" target="P3cI4czv0VAM7IYChO-c-38">
          <mxGeometry relative="1" as="geometry" />
        </mxCell>
        <mxCell id="P3cI4czv0VAM7IYChO-c-42" value="中控台" style="ellipse;shape=cloud;whiteSpace=wrap;html=1;fillColor=#e1d5e7;strokeColor=#9673a6;" vertex="1" parent="1">
          <mxGeometry x="470" y="1340" width="120" height="80" as="geometry" />
        </mxCell>
        <mxCell id="P3cI4czv0VAM7IYChO-c-51" style="edgeStyle=orthogonalEdgeStyle;rounded=0;orthogonalLoop=1;jettySize=auto;html=1;exitX=1;exitY=0.5;exitDx=0;exitDy=0;entryX=0;entryY=0.5;entryDx=0;entryDy=0;" edge="1" parent="1" source="P3cI4czv0VAM7IYChO-c-47" target="P3cI4czv0VAM7IYChO-c-48">
          <mxGeometry relative="1" as="geometry" />
        </mxCell>
        <mxCell id="P3cI4czv0VAM7IYChO-c-47" value="pageQuery" style="rounded=0;whiteSpace=wrap;html=1;fillColor=#dae8fc;strokeColor=#6c8ebf;" vertex="1" parent="1">
          <mxGeometry x="1260" y="1250" width="120" height="60" as="geometry" />
        </mxCell>
        <mxCell id="P3cI4czv0VAM7IYChO-c-53" style="edgeStyle=orthogonalEdgeStyle;rounded=0;orthogonalLoop=1;jettySize=auto;html=1;exitX=1;exitY=0.5;exitDx=0;exitDy=0;entryX=0;entryY=0.5;entryDx=0;entryDy=0;" edge="1" parent="1" source="P3cI4czv0VAM7IYChO-c-48" target="P3cI4czv0VAM7IYChO-c-52">
          <mxGeometry relative="1" as="geometry" />
        </mxCell>
        <mxCell id="P3cI4czv0VAM7IYChO-c-48" value="通用券查询" style="rounded=0;whiteSpace=wrap;html=1;fillColor=#dae8fc;strokeColor=#6c8ebf;" vertex="1" parent="1">
          <mxGeometry x="1460" y="1250" width="120" height="60" as="geometry" />
        </mxCell>
        <mxCell id="P3cI4czv0VAM7IYChO-c-50" style="edgeStyle=orthogonalEdgeStyle;rounded=0;orthogonalLoop=1;jettySize=auto;html=1;exitX=0.5;exitY=1;exitDx=0;exitDy=0;exitPerimeter=0;entryX=0.5;entryY=0;entryDx=0;entryDy=0;" edge="1" parent="1" source="P3cI4czv0VAM7IYChO-c-49" target="P3cI4czv0VAM7IYChO-c-48">
          <mxGeometry relative="1" as="geometry" />
        </mxCell>
        <mxCell id="P3cI4czv0VAM7IYChO-c-49" value="live_coupon_activity" style="shape=cylinder3;whiteSpace=wrap;html=1;boundedLbl=1;backgroundOutline=1;size=15;fillColor=#fff2cc;strokeColor=#d6b656;" vertex="1" parent="1">
          <mxGeometry x="1490" y="1110" width="60" height="80" as="geometry" />
        </mxCell>
        <mxCell id="P3cI4czv0VAM7IYChO-c-57" style="edgeStyle=orthogonalEdgeStyle;rounded=0;orthogonalLoop=1;jettySize=auto;html=1;exitX=1;exitY=0.5;exitDx=0;exitDy=0;entryX=0;entryY=0.5;entryDx=0;entryDy=0;" edge="1" parent="1" source="P3cI4czv0VAM7IYChO-c-52" target="P3cI4czv0VAM7IYChO-c-56">
          <mxGeometry relative="1" as="geometry" />
        </mxCell>
        <mxCell id="P3cI4czv0VAM7IYChO-c-52" value="商品券查询" style="rounded=0;whiteSpace=wrap;html=1;fillColor=#dae8fc;strokeColor=#6c8ebf;" vertex="1" parent="1">
          <mxGeometry x="1660" y="1250" width="120" height="60" as="geometry" />
        </mxCell>
        <mxCell id="P3cI4czv0VAM7IYChO-c-55" style="edgeStyle=orthogonalEdgeStyle;rounded=0;orthogonalLoop=1;jettySize=auto;html=1;exitX=0.5;exitY=1;exitDx=0;exitDy=0;exitPerimeter=0;entryX=0.5;entryY=0;entryDx=0;entryDy=0;" edge="1" parent="1" source="P3cI4czv0VAM7IYChO-c-54" target="P3cI4czv0VAM7IYChO-c-52">
          <mxGeometry relative="1" as="geometry" />
        </mxCell>
        <mxCell id="P3cI4czv0VAM7IYChO-c-54" value="SPI" style="shape=cylinder3;whiteSpace=wrap;html=1;boundedLbl=1;backgroundOutline=1;size=15;fillColor=#fff2cc;strokeColor=#d6b656;" vertex="1" parent="1">
          <mxGeometry x="1690" y="1120" width="60" height="80" as="geometry" />
        </mxCell>
        <mxCell id="P3cI4czv0VAM7IYChO-c-56" value="组装返回" style="rounded=0;whiteSpace=wrap;html=1;fillColor=#dae8fc;strokeColor=#6c8ebf;" vertex="1" parent="1">
          <mxGeometry x="1850" y="1250" width="120" height="60" as="geometry" />
        </mxCell>
        <mxCell id="P3cI4czv0VAM7IYChO-c-59" style="edgeStyle=orthogonalEdgeStyle;rounded=0;orthogonalLoop=1;jettySize=auto;html=1;exitX=0.5;exitY=0;exitDx=0;exitDy=0;entryX=0.5;entryY=1;entryDx=0;entryDy=0;" edge="1" parent="1" source="P3cI4czv0VAM7IYChO-c-58" target="P3cI4czv0VAM7IYChO-c-52">
          <mxGeometry relative="1" as="geometry" />
        </mxCell>
        <mxCell id="P3cI4czv0VAM7IYChO-c-58" value="商品信息查询" style="rounded=0;whiteSpace=wrap;html=1;fillColor=#dae8fc;strokeColor=#6c8ebf;" vertex="1" parent="1">
          <mxGeometry x="1660" y="1360" width="120" height="60" as="geometry" />
        </mxCell>
        <mxCell id="P3cI4czv0VAM7IYChO-c-78" style="edgeStyle=orthogonalEdgeStyle;rounded=0;orthogonalLoop=1;jettySize=auto;html=1;exitX=0.07;exitY=0.4;exitDx=0;exitDy=0;exitPerimeter=0;entryX=0.5;entryY=1;entryDx=0;entryDy=0;dashed=1;" edge="1" parent="1" source="P3cI4czv0VAM7IYChO-c-60" target="P3cI4czv0VAM7IYChO-c-61">
          <mxGeometry relative="1" as="geometry" />
        </mxCell>
        <mxCell id="P3cI4czv0VAM7IYChO-c-79" style="edgeStyle=orthogonalEdgeStyle;rounded=0;orthogonalLoop=1;jettySize=auto;html=1;exitX=0.13;exitY=0.77;exitDx=0;exitDy=0;exitPerimeter=0;entryX=0.5;entryY=0;entryDx=0;entryDy=0;dashed=1;" edge="1" parent="1" source="P3cI4czv0VAM7IYChO-c-60" target="P3cI4czv0VAM7IYChO-c-69">
          <mxGeometry relative="1" as="geometry" />
        </mxCell>
        <mxCell id="P3cI4czv0VAM7IYChO-c-80" style="edgeStyle=orthogonalEdgeStyle;rounded=0;orthogonalLoop=1;jettySize=auto;html=1;exitX=0.4;exitY=0.1;exitDx=0;exitDy=0;exitPerimeter=0;entryX=0.5;entryY=1;entryDx=0;entryDy=0;dashed=1;" edge="1" parent="1" source="P3cI4czv0VAM7IYChO-c-60" target="P3cI4czv0VAM7IYChO-c-64">
          <mxGeometry relative="1" as="geometry" />
        </mxCell>
        <mxCell id="P3cI4czv0VAM7IYChO-c-81" style="edgeStyle=orthogonalEdgeStyle;rounded=0;orthogonalLoop=1;jettySize=auto;html=1;exitX=0.875;exitY=0.5;exitDx=0;exitDy=0;exitPerimeter=0;entryX=0.5;entryY=0;entryDx=0;entryDy=0;dashed=1;" edge="1" parent="1" source="P3cI4czv0VAM7IYChO-c-60" target="P3cI4czv0VAM7IYChO-c-75">
          <mxGeometry relative="1" as="geometry" />
        </mxCell>
        <mxCell id="P3cI4czv0VAM7IYChO-c-60" value="中控台" style="ellipse;shape=cloud;whiteSpace=wrap;html=1;fillColor=#e1d5e7;strokeColor=#9673a6;" vertex="1" parent="1">
          <mxGeometry x="1330" y="2030" width="120" height="80" as="geometry" />
        </mxCell>
        <mxCell id="P3cI4czv0VAM7IYChO-c-61" value="绑定前查询" style="rounded=0;whiteSpace=wrap;html=1;fillColor=#dae8fc;strokeColor=#6c8ebf;" vertex="1" parent="1">
          <mxGeometry x="1110" y="1880" width="120" height="60" as="geometry" />
        </mxCell>
        <mxCell id="P3cI4czv0VAM7IYChO-c-63" style="edgeStyle=orthogonalEdgeStyle;rounded=0;orthogonalLoop=1;jettySize=auto;html=1;exitX=0.5;exitY=1;exitDx=0;exitDy=0;entryX=0.5;entryY=0;entryDx=0;entryDy=0;" edge="1" parent="1" source="P3cI4czv0VAM7IYChO-c-62" target="P3cI4czv0VAM7IYChO-c-61">
          <mxGeometry relative="1" as="geometry" />
        </mxCell>
        <mxCell id="P3cI4czv0VAM7IYChO-c-65" style="edgeStyle=orthogonalEdgeStyle;rounded=0;orthogonalLoop=1;jettySize=auto;html=1;exitX=1;exitY=0.5;exitDx=0;exitDy=0;entryX=0.5;entryY=0;entryDx=0;entryDy=0;" edge="1" parent="1" source="P3cI4czv0VAM7IYChO-c-62" target="P3cI4czv0VAM7IYChO-c-64">
          <mxGeometry relative="1" as="geometry" />
        </mxCell>
        <mxCell id="P3cI4czv0VAM7IYChO-c-62" value="SPI" style="rounded=0;whiteSpace=wrap;html=1;fillColor=#dae8fc;strokeColor=#6c8ebf;" vertex="1" parent="1">
          <mxGeometry x="1110" y="1765" width="120" height="60" as="geometry" />
        </mxCell>
        <mxCell id="P3cI4czv0VAM7IYChO-c-67" style="edgeStyle=orthogonalEdgeStyle;rounded=0;orthogonalLoop=1;jettySize=auto;html=1;exitX=1;exitY=0.5;exitDx=0;exitDy=0;entryX=0.5;entryY=1;entryDx=0;entryDy=0;entryPerimeter=0;" edge="1" parent="1" source="P3cI4czv0VAM7IYChO-c-64" target="P3cI4czv0VAM7IYChO-c-66">
          <mxGeometry relative="1" as="geometry" />
        </mxCell>
        <mxCell id="P3cI4czv0VAM7IYChO-c-64" value="绑定" style="rounded=0;whiteSpace=wrap;html=1;fillColor=#dae8fc;strokeColor=#6c8ebf;" vertex="1" parent="1">
          <mxGeometry x="1318" y="1880" width="120" height="60" as="geometry" />
        </mxCell>
        <mxCell id="P3cI4czv0VAM7IYChO-c-66" value="live_coupon_activity_stream" style="shape=cylinder3;whiteSpace=wrap;html=1;boundedLbl=1;backgroundOutline=1;size=15;fillColor=#fff2cc;strokeColor=#d6b656;" vertex="1" parent="1">
          <mxGeometry x="1530" y="1730" width="60" height="80" as="geometry" />
        </mxCell>
        <mxCell id="P3cI4czv0VAM7IYChO-c-68" value="插入流水" style="text;html=1;align=center;verticalAlign=middle;resizable=0;points=[];autosize=1;strokeColor=none;fillColor=none;" vertex="1" parent="1">
          <mxGeometry x="1485" y="1868" width="70" height="30" as="geometry" />
        </mxCell>
        <mxCell id="P3cI4czv0VAM7IYChO-c-73" style="edgeStyle=orthogonalEdgeStyle;rounded=0;orthogonalLoop=1;jettySize=auto;html=1;exitX=0;exitY=0.5;exitDx=0;exitDy=0;entryX=1;entryY=0.5;entryDx=0;entryDy=0;entryPerimeter=0;" edge="1" parent="1" source="P3cI4czv0VAM7IYChO-c-69" target="P3cI4czv0VAM7IYChO-c-72">
          <mxGeometry relative="1" as="geometry" />
        </mxCell>
        <mxCell id="P3cI4czv0VAM7IYChO-c-82" style="edgeStyle=orthogonalEdgeStyle;rounded=0;orthogonalLoop=1;jettySize=auto;html=1;exitX=0.5;exitY=1;exitDx=0;exitDy=0;entryX=0;entryY=0.5;entryDx=0;entryDy=0;" edge="1" parent="1" source="P3cI4czv0VAM7IYChO-c-69" target="P3cI4czv0VAM7IYChO-c-70">
          <mxGeometry relative="1" as="geometry" />
        </mxCell>
        <mxCell id="P3cI4czv0VAM7IYChO-c-69" value="绑定、删除商品券" style="rounded=0;whiteSpace=wrap;html=1;fillColor=#dae8fc;strokeColor=#6c8ebf;" vertex="1" parent="1">
          <mxGeometry x="1120" y="2120" width="120" height="60" as="geometry" />
        </mxCell>
        <mxCell id="P3cI4czv0VAM7IYChO-c-70" value="SPI" style="rounded=0;whiteSpace=wrap;html=1;fillColor=#dae8fc;strokeColor=#6c8ebf;" vertex="1" parent="1">
          <mxGeometry x="1320" y="2210" width="120" height="60" as="geometry" />
        </mxCell>
        <mxCell id="P3cI4czv0VAM7IYChO-c-72" value="live_coupon_activity_stream" style="shape=cylinder3;whiteSpace=wrap;html=1;boundedLbl=1;backgroundOutline=1;size=15;fillColor=#fff2cc;strokeColor=#d6b656;" vertex="1" parent="1">
          <mxGeometry x="960" y="2110" width="60" height="80" as="geometry" />
        </mxCell>
        <mxCell id="P3cI4czv0VAM7IYChO-c-74" value="插入流水" style="text;html=1;align=center;verticalAlign=middle;resizable=0;points=[];autosize=1;strokeColor=none;fillColor=none;" vertex="1" parent="1">
          <mxGeometry x="1040" y="2120" width="70" height="30" as="geometry" />
        </mxCell>
        <mxCell id="P3cI4czv0VAM7IYChO-c-83" style="edgeStyle=orthogonalEdgeStyle;rounded=0;orthogonalLoop=1;jettySize=auto;html=1;exitX=0.5;exitY=1;exitDx=0;exitDy=0;entryX=1;entryY=0.5;entryDx=0;entryDy=0;" edge="1" parent="1" source="P3cI4czv0VAM7IYChO-c-75" target="P3cI4czv0VAM7IYChO-c-70">
          <mxGeometry relative="1" as="geometry" />
        </mxCell>
        <mxCell id="P3cI4czv0VAM7IYChO-c-75" value="查询直播间绑定商品券" style="rounded=0;whiteSpace=wrap;html=1;fillColor=#dae8fc;strokeColor=#6c8ebf;" vertex="1" parent="1">
          <mxGeometry x="1510" y="2120" width="120" height="60" as="geometry" />
        </mxCell>
      </root>
    </mxGraphModel>
  </diagram>
</mxfile>
